# AST/ASF file generated using VICON BodyLanguage
# -----------------------------------------------
:version 1.10
:name VICON
:units
  mass 1.0
  length 0.45
  angle deg
:documentation
   .ast/.asf automatically generated from VICON data using
   VICON BodyBuilder and BodyLanguage model FoxedUp or BRILLIANT.MOD
:root
   order TX TY TZ RX RY RZ
   axis XYZ
   position 0 0 0  
   orientation 0 0 0 
:bonedata
  begin
     id 1 
     name lhipjoint
     direction 0.528046 -0.759594 0.379717 
     length 2.39752 
     axis 0 0 0  XYZ
  end
  begin
     id 2 
     name lfemur
     direction 0.34202 -0.939693 0  
     length 7.31175  
     axis 0 0 20  XYZ
    dof rx ry rz
    limits (-160.0 20.0)
           (-70.0 70.0)
           (-60.0 70.0)
  end
  begin
     id 3 
     name ltibia
     direction 0.34202 -0.939693 0   
     length 7.52482   
     axis 0 0 20   XYZ
    dof rx
    limits (-10.0 170.0)
  end
  begin
     id 4 
     name lfoot
     direction 0.0675379 -0.185559 0.980309   
     length 2.00961   
     axis -90 7.62852e-016 20   XYZ
    dof rx rz
    limits (-45.0 90.0)
           (-70.0 20.0)
  end
  begin
     id 5 
     name ltoes
     direction 1.5352e-011 -4.22286e-011 1   
     length 1.01383   
     axis -90 7.62852e-016 20   XYZ
    dof rx
    limits (-90.0 20.0)
  end
  begin
     id 6 
     name rhipjoint
     direction -0.510274 -0.769251 0.384544   
     length 2.36742  
     axis 0 0 0  XYZ 
  end
  begin
     id 7 
     name rfemur
     direction -0.34202 -0.939693 0   
     length 7.45325   
     axis 0 0 -20   XYZ
    dof rx ry rz
    limits (-160.0 20.0)
           (-70.0 70.0)
           (-70.0 60.0)
  end
  begin
     id 8 
     name rtibia
     direction -0.34202 -0.939693 0   
     length 7.49587   
     axis 0 0 -20   XYZ
    dof rx
    limits (-10.0 170.0)
 end
 begin
     id 9 
     name rfoot
     direction -0.106475 -0.292536 0.950308   
     length 2.20898  
     axis -90 -7.62852e-016 -20   XYZ
    dof rx rz
    limits (-45.0 90.0)
           (-20.0 70.0)
  end
  begin
     id 10 
     name rtoes
     direction -1.53597e-011 -4.22023e-011 1   
     length 1.10065   
     axis -90 -7.62852e-016 -20   XYZ
    dof rx
    limits (-90.0 20.0)
  end
  begin
     id 11 
     name lowerback
     direction 0.0260024 0.998026 -0.0571652   
     length 2.11214   
     axis 0 0 0   XYZ
    dof rx ry rz
    limits (-20.0 45.0)
           (-30.0 30.0)
           (-30.0 30.0)
  end
  begin
     id 12 
     name upperback
     direction 0.0216202 0.999542 -0.0211766   
     length 2.11689   
     axis 0 0 0   XYZ
    dof rx ry rz
    limits (-20.0 45.0)
           (-30.0 30.0)
           (-30.0 30.0)
  end
  begin
     id 13 
     name thorax
     direction 0.00883312 0.999944 0.00589057   
     length 2.11821   
     axis 0 0 0   XYZ
    dof rx ry rz
    limits (-20.0 45.0)
           (-30.0 30.0)
           (-30.0 30.0)
  end
  begin
     id 14 
     name lowerneck
     direction -0.059386 0.994433 0.0870401   
     length 1.81176   
     axis 0 0 0   XYZ
    dof rx ry rz
    limits (-20.0 45.0)
           (-30.0 30.0)
           (-30.0 30.0)
  end
  begin
     id 15 
     name upperneck
     direction 0.0506457 0.97328 -0.223967   
     length 1.82382   
     axis 0 0 0   XYZ
    dof rx ry rz
    limits (-20.0 45.0)
           (-30.0 30.0)
           (-30.0 30.0)
  end
  begin
     id 16
     name head
     direction 0.0205902 0.996147 -0.0852487  
     length 1.84805  
     axis 0 0 0   XYZ
    dof rx ry rz
    limits (-20.0 45.0)
           (-30.0 30.0)
           (-30.0 30.0)
  end
  begin
     id 17 
     name lclavicle
     direction 0.949493 0.303881 -0.0782325  
     length 3.60584  
     axis 0 0 0   XYZ
    dof ry rz
    limits (-20.0 10.0)
           (0.0 20.0)
  end
  begin
     id 18 
     name lhumerus
     direction 1 -4.48965e-011 1.48782e-027   
     length 4.95681   
     axis 180 -30 -90   XYZ
    dof rx ry rz
    limits (-60.0 90.0)
           (-90.0 90.0)
           (-90.0 90.0)
  end
  begin
     id 19
     name lradius
     direction 1 -4.48952e-011 2.06528e-027   
     length 3.40915   
     axis 180 -30 -90   XYZ
    dof rx
    limits (-10.0 170.0)
  end
  begin
     id 20
     name lwrist
     direction 1 -4.48964e-011 1.28021e-027   
     length 1.70457   
     axis -1.61767e-015 90 90   XYZ
    dof ry
    limits (-180.0 0.0)
 end
  begin
     id 21 
     name lhand
     direction 1 -4.49094e-011 2.54887e-027   
     length 0.616403   
     axis -1.63363e-015 90 90   XYZ
    dof rx rz
    limits (-90.0 90.0)
           (-45.0 45.0)
  end
  begin
     id 22 
     name lfingers
     direction 1 -4.49002e-011 5.11407e-027   
     length 0.49696   
     axis -3.26723e-015 90 90   XYZ
    dof rx
    limits (0.0 90.0)
  end
  begin
     id 23
     name lthumb
     direction 0.707107 -6.34998e-011 0.707107   
     length 0.713539   
     axis -90 45 -2.25915e-014   XYZ
    dof rx rz
    limits (-45.0 45.0)
           (-45.0 45.0)
  end
  begin
     id 24 
     name rclavicle
     direction -0.937751 0.334612 -0.0930482   
     length 3.46287  
     axis 0 0 0   XYZ 
    dof ry rz
    limits (-10.0 20.0)
           (-20.0 0.0)
  end
  begin
     id 25 
     name rhumerus
     direction -1 -4.48962e-011 3.59972e-027  
     length 5.352   
     axis 180 30 90   XYZ
    dof rx ry rz
    limits (-90.0 60.0)
           (-90.0 90.0)
           (-90.0 90.0)
  end
  begin
     id 26 
     name rradius
     direction -1 -4.48987e-011 -3.76925e-027   
     length 3.43721   
     axis 180 30 90   XYZ
    dof rx
    limits (-10.0 170.0)
  end
  begin
     id 27 
     name rwrist
     direction -1 -4.48943e-011 1.28112e-027   
     length 1.7186   
     axis -1.61767e-015 -90 -90   XYZ
    dof ry
    limits (-180.0 0.0)
  end
  begin
     id 28
     name rhand
     direction -1 -4.49027e-011 2.55483e-027   
     length 0.72009   
     axis -1.63363e-015 -90 -90   XYZ
    dof rx rz
    limits (-90.0 90.0)
           (-45.0 45.0)
  end
  begin
     id 29
     name rfingers
     direction -1 -4.48827e-011 5.14506e-027   
     length 0.580555   
     axis -3.26723e-015 -90 -90   XYZ
    dof rx
    limits (0.0 90.0)
  end
  begin
     id 30
     name rthumb
     direction -0.707107 -6.34936e-011 0.707107   
     length 0.833564   
     axis -90 -45 2.25915e-014   XYZ
    dof rx rz
    limits (-45.0 45.0)
           (-45.0 45.0)
  end
:hierarchy
  begin
    root lhipjoint rhipjoint lowerback
    lhipjoint lfemur
    lfemur ltibia
    ltibia lfoot
    lfoot ltoes
    rhipjoint rfemur
    rfemur rtibia
    rtibia rfoot
    rfoot rtoes
    lowerback upperback
    upperback thorax
    thorax lowerneck lclavicle rclavicle
    lowerneck upperneck
    upperneck head
    lclavicle lhumerus
    lhumerus lradius
    lradius lwrist
    lwrist lhand lthumb
    lhand lfingers
    rclavicle rhumerus
    rhumerus rradius
    rradius rwrist
    rwrist rhand rthumb
    rhand rfingers
  end

#!OML:ASF H:\Terrain\Patient Classification 1\Terrain2\Thursday\justin.ASF
:FULLY-SPECIFIED
:DEGREES
287
root -1.30019 17.7046 21.5874 -57.5208 81.9729 -55.3878
lowerback 5.75382 1.08225 7.68766
upperback 3.49364 1.97807 3.72926
thorax 0.516841 1.14127 -0.54934
lowerneck -12.7097 -1.00137 -6.75223
upperneck 39.0201 2.12399 0.906376
head 15.9699 0.625271 2.13374
rclavicle 2.82274e-014 1.98785e-014
rhumerus -28.2549 -10.7013 -79.5552
rradius 24.7253
rwrist -8.44982
rhand -20.7418 11.5932
rfingers 7.12502
rthumb 5.62364 -18.3122
lclavicle 2.82274e-014 1.98785e-014
lhumerus -39.8781 20.3857 77.0898
lradius 18.3697
lwrist -15.8955
lhand -9.60948 24.0268
lfingers 7.12502
lthumb 16.3597 53.3568
rfemur 3.14093 -2.23972 30.0104
rtibia 19.9517
rfoot -17.575 2.09055
rtoes 18.2153
lfemur -25.8655 1.48117 -10.6202
ltibia 36.4855
lfoot -9.92914 -0.69359
ltoes 2.1277
288
root -1.24353 17.703 21.5852 -58.7166 81.6534 -56.6696
lowerback 5.71446 1.00002 8.02032
upperback 3.55211 1.88392 3.84191
thorax 0.602195 1.10541 -0.609245
lowerneck -12.9106 -0.931955 -6.86978
upperneck 39.0595 2.28935 0.882088
head 16.0322 0.667346 2.17469
rclavicle -1.32192e-014 4.77083e-015
rhumerus -28.0775 -9.96291 -79.8709
rradius 24.902
rwrist -8.912
rhand -20.959 11.581
rfingers 7.12502
rthumb 5.41394 -18.3299
lclavicle -1.32192e-014 4.77083e-015
lhumerus -39.9037 20.4416 77.2885
lradius 18.3533
lwrist -15.9027
lhand -8.35955 22.2328
lfingers 7.12502
lthumb 17.5629 51.4595
rfemur 3.53026 -2.24413 30.352
rtibia 19.5038
rfoot -17.5767 2.24486
rtoes 18.4908
lfemur -26.0396 1.81851 -10.3186
ltibia 35.2951
lfoot -9.92379 -0.612569
ltoes -3.52788
289
root -1.17907 17.7103 21.5909 -58.4671 81.7388 -56.4637
lowerback 5.64765 0.997394 7.82278
upperback 3.55719 1.86051 3.80844
thorax 0.636773 1.09093 -0.532195
lowerneck -12.8589 -0.944537 -6.95373
upperneck 39.0654 2.26598 0.953182
head 16.0218 0.655596 2.21609
rclavicle -4.27387e-015 -9.54166e-015
rhumerus -28.1628 -9.24017 -80.2175
rradius 25.2024
rwrist -9.6067
rhand -21.2844 11.5453
rfingers 7.12502
rthumb 5.0997 -18.3734
lclavicle -4.27387e-015 -9.54166e-015
lhumerus -39.968 20.3936 77.3289
lradius 18.3694
lwrist -15.9495
lhand -3.95107 19.514
lfingers 7.12502
lthumb 21.8009 48.3061
rfemur 3.91629 -2.03662 30.2569
rtibia 19.2439
rfoot -17.7407 2.20051
rtoes 19.0644
lfemur -26.0012 1.16296 -10.1767
ltibia 34.0336
lfoot -10.2019 -0.470212
ltoes 1.16812
290
root -1.11339 17.7077 21.5951 -57.8274 81.7765 -55.828
lowerback 5.5802 0.940769 7.54138
upperback 3.62485 1.76247 3.88225
thorax 0.725563 1.04158 -0.29348
lowerneck -12.9141 -0.876571 -7.10626
upperneck 39.074 2.4514 0.875976
head 16.0332 0.697736 2.24094
rclavicle -2.52457e-014 -6.12257e-014
rhumerus -28.0697 -8.53115 -80.3947
rradius 25.3457
rwrist -9.84788
rhand -21.569 11.4783
rfingers 7.12502
rthumb 4.82496 -18.4467
lclavicle -2.52457e-014 -6.12257e-014
lhumerus -40.2856 21.0341 77.2413
lradius 18.7394
lwrist -16.513
lhand -6.34904 21.8939
lfingers 7.12502
lthumb 19.4968 50.9364
rfemur 4.23737 -2.12157 30.1148
rtibia 19.0979
rfoot -17.9543 2.27892
rtoes 19.0668
lfemur -25.9409 0.571674 -10.008
ltibia 32.7429
lfoot -10.4313 -0.676607
ltoes 6.23511
291
root -1.05648 17.6987 21.5967 -57.2026 81.8049 -55.2952
lowerback 5.50268 0.857848 7.19403
upperback 3.69303 1.6287 4.04158
thorax 0.815003 0.973006 0.0716885
lowerneck -13.3198 -0.824091 -7.17954
upperneck 39.3116 2.7624 0.512839
head 16.2565 0.754801 2.16106
rclavicle 1.11319e-014 3.57812e-014
rhumerus -27.8633 -7.97492 -80.3623
rradius 25.4603
rwrist -9.82956
rhand -21.2358 11.4036
rfingers 7.12502
rthumb 5.14666 -18.5139
lclavicle 1.11319e-014 3.57812e-014
lhumerus -40.671 21.7155 77.3792
lradius 19.2654
lwrist -16.6936
lhand -7.6202 22.2678
lfingers 7.12502
lthumb 18.2743 51.4294
rfemur 4.51223 -2.33262 29.9834
rtibia 18.749
rfoot -18.0178 2.45031
rtoes 18.9032
lfemur -26.0403 0.397449 -9.91018
ltibia 31.5711
lfoot -10.3711 -1.37075
ltoes 10.1438
292
root -1.00126 17.6852 21.6017 -58.0355 81.7627 -56.0829
lowerback 5.67035 0.812835 7.06348
upperback 3.70559 1.58472 4.14781
thorax 0.724858 0.947657 0.251711
lowerneck -12.657 -0.599301 -7.53315
upperneck 38.8181 2.96561 0.85188
head 15.8106 0.855587 2.37684
rclavicle -5.36719e-015 2.38542e-015
rhumerus -27.8682 -7.69051 -80.3979
rradius 25.6756
rwrist -10.152
rhand -20.6068 11.3994
rfingers 7.12502
rthumb 5.75399 -18.5025
lclavicle -5.36719e-015 2.38542e-015
lhumerus -40.5856 20.7773 78.2005
lradius 19.5304
lwrist -15.6937
lhand -7.5404 22.0193
lfingers 7.12502
lthumb 18.351 51.1737
rfemur 5.01974 -2.4518 30.1153
rtibia 18.1888
rfoot -17.9482 2.26431
rtoes 17.6101
lfemur -26.152 0.125857 -9.66568
ltibia 30.648
lfoot -10.4184 -1.82472
ltoes 11.5217
293
root -0.939238 17.6846 21.6062 -59.0803 81.5759 -57.0809
lowerback 5.87771 0.827701 7.28861
upperback 3.63698 1.64189 4.11753
thorax 0.549167 0.974424 0.0873161
lowerneck -12.9944 -0.712071 -7.24637
upperneck 39.3461 2.85499 0.748177
head 16.1797 0.825807 2.28853
rclavicle 2.18663e-014 1.74931e-014
rhumerus -28.0397 -7.62667 -80.6296
rradius 25.7886
rwrist -10.3996
rhand -20.6317 11.5008
rfingers 7.12502
rthumb 5.7299 -18.4017
lclavicle 2.18663e-014 1.74931e-014
lhumerus -40.2416 18.7332 79.3622
lradius 19.6559
lwrist -13.5988
lhand -7.26332 22.4329
lfingers 7.12502
lthumb 18.6176 51.5619
rfemur 5.4167 -2.62494 30.3582
rtibia 17.8917
rfoot -18.0065 2.18739
rtoes 16.3286
lfemur -26.2519 -0.244298 -9.31073
ltibia 29.6957
lfoot -10.3997 -1.5852
ltoes 8.80183
